<svg xmlns="http://www.w3.org/2000/svg" viewBox="0 0 1682 707">
  <g fill="#263685">
    <path d="M665.34 279.28c6.34-26.81 12.02-53.77 18.26-80.6l5.97.01c-6.74 30.48-13.5 60.96-20.32 91.42l-5.85-.08c-3.1-9.31-9.3-17.83-18.01-22.56-8.4-4.48-18.02-5.63-27.38-6.15-18.42-1.09-37.01 3.66-53.01 12.74-13.18 8.02-24.94 18.68-33.15 31.82-12.14 17.9-15.93 39.85-17.34 61.03-1.04 17.62.94 36.17 9.81 51.74 9.15 15.2 25.23 26.15 42.82 28.69a96.85 96.85 0 0 0 34.7-1.03 50.67 50.67 0 0 0 31.5-20.96c1.98-.08 3.98-.1 5.98-.12-1.36 6.01-2.78 12.01-4.14 18.02 19.15-.01 38.3.01 57.45-.01.99-5.38 3.21-10.66 2.65-16.23a181072.6 181072.6 0 0 1-15.62-165.25c17.77-.02 35.55 0 53.32-.01 4.78-21.01 9.36-42.06 14.13-63.07l5.73.01c-4.59 21.03-9.4 42.02-14.01 63.05l9.84.01c1.05 38.25 1.89 76.5 2.92 114.75 18.02-38.18 35.85-76.45 53.74-114.69 22.43-.18 44.87-.05 67.3-.07 1.06 38.24 1.88 76.48 2.93 114.72 18.15-38.18 35.99-76.51 54.08-114.72 22.94.02 45.88 0 68.81.01-33.58 62.39-67.19 124.77-100.74 187.17-24.17.04-48.33 0-72.5.02-.9-37.57-1.69-75.14-2.63-112.71-17.67 37.53-35.16 75.14-52.76 112.71H628.09l2.21-11.08c-7.42 6.65-16.27 12.08-26.15 13.99-15.24 3.17-31.3 3.34-46.4-.62-19.24-5.56-35.61-20.31-43.01-38.93-6.92-18.35-7.43-38.46-4.94-57.74 2.2-19.29 7.6-38.71 18.95-54.71 17.29-25.42 46.61-42.11 77.25-44.29 9.98-.73 20.03.2 29.84 2.13 7.99 1.5 15.21 5.78 21.21 11.16 3.33 2.99 5.54 6.94 8.29 10.43ZM1323.15 448.94c18.48-83.42 36.88-166.86 55.51-250.25h69.78c-8.78 39.8-17.74 79.55-26.46 119.36 20.15-18.68 40.14-37.53 60.38-56.11 29.03-.44 58.12-.14 87.17-.17-30.73 25.08-61.48 50.14-92.17 75.27 16.53 37.28 33 74.58 49.45 111.9h-75.83c-8.99-22.86-17.82-45.78-26.8-68.64-6.6 5.3-13.25 10.54-19.79 15.91-3.77 17.58-7.61 35.15-11.41 52.72-23.28.02-46.55 0-69.83.01ZM1588.13 199.07a26.16 26.16 0 0 1 23.68 8.08c9.09 9.74 9.07 26.62-.79 35.82-8.99 9.29-24.9 10.07-34.8 1.78-10.23-8-12.58-24-5.04-34.58a25.73 25.73 0 0 1 16.95-11.1m1.43 1.68c-13.24 1.28-23.39 15.27-20.66 28.26 2.12 12.29 14.77 21.51 27.14 19.57 10.24-1.54 19.23-10.08 20.6-20.46 1.41-8.73-2.83-17.75-9.75-23.02-4.9-3.69-11.31-5-17.33-4.35Z"/>
    <path d="M1584.44 236.68c0-8.02-.02-16.03.01-24.04 4.19-.03 8.44-.41 12.62.26 3.96.74 6.01 5.85 4.11 9.28-1 2.19-3.43 2.99-5.38 4.03l6.84 10.44-4.2.1c-2.3-3.58-4.57-7.17-6.84-10.76l-3.66-.07-.02 10.78-3.48-.02m3.5-20.46c-.01 2.06-.02 4.12 0 6.19 2.92-.05 6.04.61 8.84-.54 2.25-1.02 2.19-4.53-.12-5.43-2.8-1.01-5.85-.2-8.72-.22ZM152.75 263.76c15.13-5.38 31.24-7.84 47.28-7.83 20.7-.47 41.58 5.55 58.57 17.44 10.69 7.3 19.6 17.36 24.61 29.36a67.08 67.08 0 0 1 5.33 30.32c-22.38.03-44.76.02-67.14 0 .83-9.95-4.52-20.47-13.8-24.61-16.57-7.79-38.25-1.31-47.96 14.17a86.99 86.99 0 0 0-12.46 47.4c.27 6.7.74 13.71 4.11 19.69a28.96 28.96 0 0 0 23.65 14.99 38.8 38.8 0 0 0 31.26-13.53c4.35-4.7 6.66-10.78 8.53-16.8 22.28-.25 44.57-.06 66.85-.09-5.72 27.04-23.12 51.21-46.71 65.53a102.3 102.3 0 0 1-47.9 14.73c-16.15.93-32.44-.9-47.96-5.46-10.62-3.16-21.3-7.04-30.12-13.91a67.65 67.65 0 0 1-23.75-33.46c-8.55-26.4-6.42-55.94 5.5-80.97 4.82-9.99 11-19.36 18.44-27.6 11.95-13.07 27.14-23.07 43.67-29.37m30.34-.98c-17.85 2.05-35.57 7.61-50.51 17.77a105.76 105.76 0 0 0-42.68 58.47 104.47 104.47 0 0 0 .61 60.61 62.84 62.84 0 0 0 32.47 37.38 134.81 134.81 0 0 0 70.45 11.12c18.62-1.94 36.19-10.26 50.62-22 14.05-12.2 24.89-28.27 30.13-46.18-18.33-.02-36.67-.02-55 0-5.8 16.87-22.13 30.02-40.2 30.5a35.2 35.2 0 0 1-30.79-14.68 37.25 37.25 0 0 1-6.19-16.75 95.81 95.81 0 0 1 10.42-55.67c5.62-10.39 15.25-18.78 26.7-21.99 10.28-3.02 21.74-2.59 31.46 2.08 9.13 4.53 15.25 13.95 16.64 23.94 18.53-.01 37.06.02 55.59-.02a61.5 61.5 0 0 0-7.94-28.26c-6.89-12.44-18.44-21.71-31.18-27.69-18.52-9.61-40.17-11.33-60.6-8.63ZM359.34 264.57c12.07-5.62 25.47-7.51 38.65-8.21 16.38-.72 32.81-.51 49.12 1.18 16.61 1.23 32.94 7.7 45.41 18.83 10.97 9.87 15.54 25.9 12.29 40.19-7.69 34.5-15.37 69.01-23.09 103.5-.94 4.26-2.2 8.6-1.64 13.01.68 5.47 2.69 10.63 4.32 15.86-23.38.01-46.77.02-70.15-.01-.15-4.48-.32-8.96-.53-13.43-5.3 4.98-10.91 9.92-17.85 12.46-15.92 6.18-33.38 7.75-50.31 6.25-9.18-.91-18.37-2.97-26.67-7.1-15.7-8.07-26.8-24.43-28.45-42.01-1.46-15.1 3.58-30.61 13.27-42.23 9.27-11.35 23.04-18.11 37.26-20.8 26.61-6.3 54.26-4.25 81.05-9.29 7.36-1.28 14.04-7.18 15.19-14.73 1.3-7.93-5.05-16.22-13.09-16.89-9.26-1-18.77-.92-27.85 1.35-8.72 2.5-14.38 11.33-14.89 20.13-22.12.03-44.23.09-66.35-.01 3.35-25.32 20.88-48.03 44.31-58.05m25.56-1.26a82.06 82.06 0 0 0-30.97 10.59 70.36 70.36 0 0 0-31.83 42.78c18.09-.02 36.18.08 54.27-.07 1.79-5.9 4.82-11.7 9.98-15.32 7.48-5.9 17.47-6.4 26.6-6.48 7.36.04 15.5-.21 21.66 4.51 8.66 5.9 11.17 18.93 5.47 27.69-3.83 5.88-9.97 10.46-16.99 11.6a279.9 279.9 0 0 1-32.02 3.65c-12.41.84-24.94.78-37.17 3.24-7.75 1.51-15.53 3.01-23.08 5.36-17.01 5.99-30.51 21.29-33.87 39.07-1.93 10.4-.9 21.57 4.03 31.02 6.17 12.19 17.63 21.75 30.99 24.96 18.25 4.68 37.64 3.68 55.74-1.2a45.86 45.86 0 0 0 25.57-18.07c1.91-.04 3.82-.08 5.74-.1l.77 16.71h56.66c-1.96-5.99-3.1-12.45-1.75-18.7 7.74-34.91 15.56-69.81 23.28-104.72.83-3.91 1.95-7.8 2.08-11.82.42-11.94-5.66-23.84-15.47-30.61-8.1-5.55-16.97-10.26-26.63-12.36-7.19-1.71-14.6-1.84-21.91-2.59-17.04-1.14-34.18-1.08-51.15.86ZM1074.51 256.84c17.82-1.78 36.41-1.41 53.23 5.4 20.86 7.81 39.26 24.08 46.4 45.56 10.6 32.93 4.94 70.81-15.41 98.88a112.05 112.05 0 0 1-42.77 36.15c-18.92 8.91-40.14 12.43-60.95 11.86-19.36.09-38.79-5.93-54.44-17.38-8.81-6.5-16.57-14.69-21.39-24.6-8.35-16.49-10.47-35.48-9.11-53.72 2.82-34.32 22.59-66.86 51.95-84.91 15.62-10.22 34.04-15.37 52.49-17.24m1.98 48.94c-6.71 1.19-13.25 3.81-18.59 8.09-8.68 6.77-13.1 17.26-16.58 27.37-3.9 13.27-5.83 27.5-2.95 41.17a28.87 28.87 0 0 0 21.06 21.97c15.87 3.78 33.39-4.58 41.25-18.7 9.21-16.84 13.28-36.66 10.33-55.7-.98-5.49-3.25-10.85-7.06-14.98a30.53 30.53 0 0 0-27.46-9.22ZM1314.91 257.55a73.47 73.47 0 0 1 37.93 1.99c-4.25 19.66-8.66 39.28-12.99 58.92a96.65 96.65 0 0 0-38.77-3.56c-13.9 1.02-26.61 9.92-33.01 22.19a96.04 96.04 0 0 0-9.19 25.83c-6.46 28.65-12.64 57.35-19.02 86.02l-69.05-.01c13.75-62.4 27.58-124.78 41.37-187.18 23.01 0 46.02-.01 69.03.01-1.21 5.73-2.51 11.45-3.82 17.16 10.19-10.44 23.1-18.47 37.52-21.37ZM611.43 300.71c7.51-1.8 15.63-1.88 22.88.99 11.53 4.25 20.45 14.99 22.19 27.19a92.78 92.78 0 0 1-11.74 60.89c-8.52 14.54-26.13 23.22-42.85 21.07-8.29-.91-15.89-5.28-21.49-11.36-5.17-5.26-7.72-12.51-8.73-19.68-2.36-19.09 1.43-38.75 10.15-55.85 6.11-11.35 16.89-20.41 29.59-23.25m5.12 4.99a38.93 38.93 0 0 0-28.15 18.71c-9.91 17.08-13.51 37.6-10.62 57.09 1.67 9.97 9.18 18.57 18.61 22.04 17.03 6.04 36.8-3.61 44.91-19.21 8.82-17.12 12.66-37.17 9.15-56.22-2.78-15.04-19.07-25.38-33.9-22.41Z"/>
    <path d="M406.01 366.23c9.71-.17 19.15-2.9 28.16-6.36-1.88 15.04-6.07 30.48-15.96 42.33-9.21 10.88-23.97 16.82-38.15 15.21-7.08-.68-15.08-1.81-19.94-7.6-7.58-8.17-7.79-21.86-.6-30.33a23.44 23.44 0 0 1 11.21-7.59c11.31-3.98 23.34-5.51 35.28-5.66m-.95 5.81c-11.09.17-22.19 1.9-32.7 5.46-4.54 1.53-8.62 4.76-10.62 9.19-3.46 7.15-1.42 16.75 5.13 21.43 4.48 2.8 9.95 3.11 15.07 3.59 9.73.92 19.59-2.53 27.06-8.71 10.33-8.54 15.01-21.77 18-34.42-7.17 1.89-14.5 3.41-21.94 3.46Z"/>
  </g>
</svg>
